<svg width="36" height="36" viewBox="0 0 36 36" fill="none" xmlns="http://www.w3.org/2000/svg">
<rect x="1" y="1" width="34" height="34" rx="3" stroke="#4ABE84" stroke-width="2"/>
<path d="M15.2947 23.8208L17.3789 24.85V18.0674C17.3778 17.7973 17.2693 17.5386 17.0767 17.3469L10.3239 10.5848H26.5391L19.7966 17.3469C19.6041 17.5386 19.4956 17.7973 19.4944 18.0674L19.4632 26.0234L21.5474 27.0526V18.4893L28.4044 11.614C28.6787 11.3392 28.8354 10.9706 28.8421 10.5848V9.55555C28.8421 9.28257 28.7323 9.02078 28.5369 8.82776C28.3414 8.63474 28.0764 8.52631 27.8 8.52631H9.04211C8.76572 8.52631 8.50066 8.63474 8.30523 8.82776C8.10979 9.02078 8 9.28257 8 9.55555V10.5848C8.00667 10.9706 8.16339 11.3392 8.43768 11.614L15.2947 18.4893V23.8208Z" fill="#4ABE84"/>
</svg>
